<?xml version="1.0" encoding="utf-8" ?><svg xmlns="http://www.w3.org/2000/svg" xmlns:xlink="http://www.w3.org/1999/xlink" width="1024" height="1024" viewBox="244 244 536 536"><path d="M661.373 287.154C663.504 289.194 670.213 303.909 671.738 307.639C688.101 347.655 690.185 386.718 674.083 427.044C684.17 437.821 696.568 456.713 703.355 469.807C738.724 538.041 721.366 619.342 665.661 670.406C636.963 696.256 600.793 712.318 562.372 716.273C542.665 718.414 521.972 718.044 502.104 718.082L421.759 717.988C372.722 717.699 346.252 715.918 301.038 739.518C300.164 699.424 304.62 672.341 324.13 636.382C334.267 618.638 347.907 603.141 364.222 590.834C391.986 570.136 427.451 560.273 461.879 565.252L461.324 564.626C442.079 543.049 413.651 530.554 385.06 528.865C373.189 528.164 361.238 528.768 349.373 528.068C353.402 491.85 369.453 452.843 395.561 427.025C392.839 420.087 390.527 413.959 388.74 406.638C379.117 367.211 387.154 321.983 408.079 287.385C447.957 298.69 482.542 323.757 505.695 358.138C527.33 355.306 541.41 354.521 563.214 358.111C582.4 329.397 606.63 308.773 638.592 295.305C645.599 292.353 654.094 289.653 661.373 287.154Z"/><path fill="#ED4530" d="M580.336 395.957C595.638 366.843 612.789 343.957 643.915 330.064C650.139 344.474 652.141 361.726 651.666 377.324C651.065 397.065 645.319 413.308 634.54 429.636C648.22 444.594 658.775 459.524 668.871 477.122C670.714 480.335 674.401 486.026 675.283 489.399C676.793 492.113 677.877 493.991 679.04 496.874C634.714 500.347 600.665 518.258 571.565 551.827C562.896 561.827 557.378 572.431 550.078 581.487C542.03 591.799 523.479 590.96 514.362 582.449C506.821 573.926 502.288 564.12 495.601 554.741C473.803 524.164 437.289 502.764 400.309 497.182C398.443 496.9 392.657 496.771 391.62 496.037L392.271 494.026C393.046 490.505 395.289 486.155 396.939 482.838C406.723 463.175 420.576 447.434 435.791 431.881C433.983 428.98 432.225 426.048 430.517 423.086C412.757 391.658 415.883 363.518 425.117 330.426C445.809 340.267 466.461 359.396 479.133 378.462C483.331 384.776 485.711 389.673 489.346 396.024C510.364 388.601 536.685 386.768 558.443 390.558C565.744 391.83 573.177 393.976 580.336 395.957Z"/><path fill="#FEFEFE" d="M550.078 581.487C549.082 579.628 548.608 575.172 548.422 572.935C544.448 524.855 562.215 452.515 624.237 459.551C645.403 461.952 661.984 473.149 675.283 489.399C676.793 492.113 677.877 493.991 679.04 496.874C634.714 500.347 600.665 518.258 571.565 551.827C562.896 561.827 557.378 572.431 550.078 581.487Z"/><path fill="#ED4530" d="M591.623 475.275C600.333 473.201 609.079 478.569 611.174 487.275C613.268 495.981 607.921 504.74 599.22 506.855C590.489 508.977 581.695 503.608 579.594 494.873C577.492 486.137 582.882 477.356 591.623 475.275Z"/><path fill="#FEFEFE" d="M392.271 494.026C395.844 489.4 399.133 484.84 403.077 480.543C423.075 458.757 463.162 450.896 487.589 470.066C514.381 491.091 519.89 540.311 516.203 572.23C515.9 574.85 515.116 580.096 514.362 582.449C506.821 573.926 502.288 564.12 495.601 554.741C473.803 524.164 437.289 502.764 400.309 497.182C398.443 496.9 392.657 496.771 391.62 496.037L392.271 494.026Z"/><path fill="#ED4530" d="M471.293 473.794C477.129 472.836 483.025 475.119 486.693 479.758C490.362 484.397 491.225 490.661 488.947 496.119C486.67 501.577 481.611 505.37 475.734 506.026C466.964 507.005 459.012 500.816 457.807 492.074C456.603 483.332 462.585 475.223 471.293 473.794Z"/><path fill="#ED4530" d="M679.613 530.204C681.367 529.975 685.513 529.875 687.434 529.775C688.801 562.37 686.055 586.305 668.712 614.791C641.986 658.687 596.598 681.57 546.135 684.098C531.692 684.822 517.354 684.533 502.971 684.528L426.557 684.506C392.952 684.506 370.61 682.7 337.89 690.968C338.891 686.567 339.911 683.195 341.277 678.876C362.419 615.189 420.165 582.995 484.841 603.412C489.108 604.76 494.598 609.197 498.129 611.875C509.66 620.621 523.458 623.597 537.715 622.45C572.288 619.66 577.977 595.649 597.432 572.958C619.549 547.163 645.737 532.911 679.613 530.204Z"/></svg>