<svg xmlns="http://www.w3.org/2000/svg" viewBox="0 0 64 64">
  <rect width="64" height="64" rx="12" fill="#050509"/>
  <path d="M25 28 15 13m10 15-1-18m1 18 10-17m15 17 10-15M50 28l1-18M50 28 40 11" fill="none" stroke="#c7a8ff" stroke-width="4" stroke-linecap="round" stroke-linejoin="round"/>
  <path d="M17 31c1-9 7-15 15-15s14 6 15 15l5 4-6 3c-2 8-7 12-14 12s-12-4-14-12l-6-3 5-4Z" fill="none" stroke="#f8f7f1" stroke-width="4" stroke-linejoin="round"/>
  <path d="M23 30c3-3 6-4 9-4s6 1 9 4M27 40h10" fill="none" stroke="#f8f7f1" stroke-width="3" stroke-linecap="round"/>
  <circle cx="25" cy="35" r="2" fill="#f8f7f1"/>
  <circle cx="39" cy="35" r="2" fill="#f8f7f1"/>
  <path d="M32 36v5" stroke="#f8f7f1" stroke-width="3" stroke-linecap="round"/>
  <rect x="50" y="50" width="6" height="6" fill="#c7a8ff"/>
</svg>
