<svg xmlns="http://www.w3.org/2000/svg" viewBox="0 0 64 64">
  <rect width="64" height="64" fill="#030304"/>
  <defs>
    <linearGradient id="antler" x1="8" y1="4" x2="35" y2="62" gradientUnits="userSpaceOnUse">
      <stop offset="0" stop-color="#f0e8ff"/>
      <stop offset=".45" stop-color="#b99cff"/>
      <stop offset="1" stop-color="#7e62bd"/>
    </linearGradient>
    <g id="left-antler">
      <path d="M30.2 60c-.9-8-3.7-16.2-8.4-23.8-5.7-9-7.1-20.5-3.3-31.4.8-1.4 3.7-.7 3.3 1-3 10.3-1.6 19.7 3.3 28 5.3 8.9 8.1 17.7 8.9 26.2Z" fill="url(#antler)"/>
      <path d="M22 33.5c-5.9.9-11.1-2.3-15.5-8.8-.9-1.3.9-3 2-1.9 4.4 4.6 8.8 7 14.7 6.9Z" fill="url(#antler)"/>
      <path d="M19.5 25.9c-6.1-4.9-7.9-12.5-4.9-20.7.5-1.3 3.1-.7 2.8.7-2.2 8.2 0 14.3 5.4 18.7Z" fill="url(#antler)"/>
      <path d="M19.2 15.8c3.7-3.6 6-7.4 7.4-12.2.3-1.3 2.8-.8 2.6.5-1.1 6.1-4.6 11.4-8.7 15.9Z" fill="url(#antler)"/>
      <path d="M25.8 44.7c-5 3.9-11.1 4.7-17.2 2.5-1.4-.5-.4-2.9 1.2-2.5 5.6 1.3 10.5.1 15-3.5Z" fill="url(#antler)"/>
      <path d="M30.2 60c-.9-8-3.7-16.2-8.4-23.8-5.7-9-7.1-20.5-3.3-31.4" fill="none" stroke="#f3ecff" stroke-width="1" stroke-linecap="round" opacity=".8"/>
      <path d="M30.6 54.3 34 52.9M28 47.4l3.6-2.2M24.7 39.8l3-2.7M21.1 31.3l3.4-1.7M17.5 21.8l3.5-.7M20.3 29.9 8.9 23.8M18.9 22.2l-3-15.7M20.8 17.6 27.4 5M25.3 43.2 9.5 45.8" fill="none" stroke="#efe7ff" stroke-width=".85" stroke-linecap="round" opacity=".62"/>
    </g>
  </defs>
  <use href="#left-antler"/>
  <use href="#left-antler" transform="matrix(-1 0 0 1 64 0)"/>
</svg>
